<svg xmlns="http://www.w3.org/2000/svg" xmlns:xlink="http://www.w3.org/1999/xlink" version="1.1" width="580px" height="193px" viewBox="-0.5 -0.5 580 193"><defs/><g><path d="M 2.67 183.96 L 5.68 183.95 L 10.19 183.86 L 14.41 183.78 L 18.28 183.7 L 21.81 183.63 L 25.22 183.64 L 28.4 183.79 L 31.18 183.99 L 34.64 184.29 L 37.82 184.27 L 40.95 184.2 L 43.55 184.16 L 46.56 184.12 L 49.56 184.09 L 52.57 184.06 L 55.81 184.04 L 58.35 184.05 L 61.07 184.05 L 63.73 184.06 L 67.25 184.05 L 70.2 184.23 L 73.32 184.68 L 77.54 184.72 L 82.34 184.6 L 85.06 184.46 L 87.84 184.31 L 90.55 184.13 L 93.21 183.99 L 97.95 183.73 L 101.94 183.53 L 105.24 183.45 L 108.24 183.4 L 110.85 183.35 L 114.49 183.29 L 118.02 183.24 L 121.77 183.2 L 125.18 183.17 L 128.42 183.13 L 131.72 183.11 L 135.42 183.17 L 138.19 183.39 L 140.74 183.64 L 144.09 184 L 146.81 184.02 L 149.64 183.99 L 152.42 183.95 L 155.02 183.92 L 153.63 181.55 L 153.28 178.93 L 153.28 176.19 L 153.28 173.15 L 153.34 170.39 L 153.4 167.13 L 153.46 163.77 L 153.51 160.68 L 153.51 157.91 L 153.51 154.64 L 153.51 151.66 L 153.51 148.66 L 153.51 145.16 L 153.51 141.82 L 153.46 138.86 L 153.46 136.02 L 153.46 132.86 L 153.46 129.57 L 153.46 126.9 L 153.51 123.54 L 153.86 120.97 L 154.38 117.84 L 154.38 114.98 L 154.32 112.14 L 154.61 109.35 L 156.64 107.17 L 159.18 106.78 L 161.78 107.42 L 164.27 107.72 L 166.75 106.97 L 170.51 107.43 L 172.13 110.12 L 172.19 112.63 L 172.19 115.49 L 172.13 118.57 L 172.42 122.14 L 172.77 125.45 L 173.17 128.84 L 173.58 131.95 L 173.98 134.45 L 174.5 138.15 L 174.96 141.06 L 175.37 144.29 L 175.83 147.11 L 176.12 149.99 L 176.53 153.78 L 176.7 156.67 L 176.76 159.68 L 176.76 162.69 L 176.76 165.62 L 176.76 168.23 L 176.76 171.7 L 176.76 174.91 L 176.81 177.86 L 176.81 180.94 L 176.87 183.83 L 179.82 182.52 L 182.54 182.25 L 185.26 181.83 L 187.97 181.49 L 191.04 181.07 L 194.16 180.6 L 197.8 180.22 L 200.92 180.06 L 204.45 180.07 L 207.98 180.11 L 211.45 180.13 L 214.45 180.14 L 217 180.13 L 220.29 180.11 L 223.01 180.07 L 226.19 180.03 L 229.54 180.02 L 232.26 180.04 L 235.21 180.06 L 237.93 180.06 L 241.05 180.05 L 243.77 180 L 246.6 179.96 L 250.01 179.94 L 253.54 179.96 L 257.18 179.97 L 260.07 179.81 L 263.48 179.46 L 266.14 179.22 L 269.2 179.05 L 272.33 179.04 L 275.04 179.05 L 278.51 179.04 L 281.29 179.01 L 284.47 178.99 L 287.24 178.95 L 290.13 178.93 L 293.37 178.91 L 296.26 179.1 L 299.21 179.61 L 297.48 175.97 L 297.65 173.22 L 297.82 170.03 L 297.94 166.59 L 298.11 163.04 L 298.23 159.59 L 298.29 156.26 L 298.34 153.05 L 298.34 149.95 L 298.46 146.87 L 298.57 143.82 L 298.69 140.81 L 298.81 137.8 L 298.98 134.74 L 299.27 131.72 L 299.5 128.71 L 299.73 125.84 L 299.9 123.23 L 300.08 118.64 L 300.19 115.26 L 300.08 112.23 L 299.96 109.58 L 300.83 107.07 L 303.2 105.43 L 306.61 105 L 309.27 104.67 L 312.97 104.22 L 316.96 103.76 L 320.49 103.27 L 323.2 102.87 L 326.5 103.38 L 328.29 106.47 L 327.6 109.09 L 327.08 111.9 L 326.73 115.68 L 326.5 121.19 L 326.33 124.62 L 326.15 128.46 L 325.98 132.54 L 325.81 136.71 L 325.81 140.9 L 325.81 144.97 L 325.86 148.86 L 326.04 152.45 L 326.15 155.77 L 326.33 158.75 L 326.5 161.45 L 326.85 166.05 L 326.96 169.57 L 327.08 172.42 L 327.25 175.52 L 330.6 176.32 L 334.25 176.32 L 338.53 176.53 L 342.75 176.79 L 346.79 177.05 L 350.15 177.21 L 352.92 177.04 L 355.64 176.63 L 358.24 176.1 L 361.19 175.42 L 363.96 174.86 L 366.68 174.48 L 369.28 174.24 L 372.98 174.16 L 375.7 174.15 L 378.65 174.15 L 381.77 174.16 L 385.01 174.24 L 388.19 174.47 L 391.25 174.72 L 393.97 174.96 L 397.56 175.12 L 400.97 175.12 L 404.32 175.09 L 407.44 175.07 L 410.33 175.05 L 413.4 174.75 L 416.46 174.23 L 419.47 173.98 L 422.24 173.95 L 425.13 173.93 L 427.97 174 L 430.45 174.44 L 434.1 175.27 L 436.58 175.93 L 439.82 176.73 L 442.54 177.59 L 445.2 178.93 L 441.15 179.94 L 440.4 176.79 L 440.4 174.16 L 440.45 170.87 L 440.69 166.34 L 440.86 163.65 L 441.09 160.72 L 441.38 157.56 L 441.73 154.28 L 442.19 150.9 L 442.59 147.59 L 443.11 144.4 L 443.52 141.5 L 443.92 138.81 L 444.27 136.28 L 444.79 131.87 L 445.02 128.15 L 445.08 125.29 L 444.91 122.21 L 444.39 119.42 L 443.81 116.29 L 443.69 113.62 L 443.63 111.04 L 445.31 107.22 L 447.91 106.48 L 450.51 106.72 L 453.52 107.19 L 456.87 107.72 L 460.11 108.24 L 462.6 108.65 L 465.43 109.45 L 467.34 112.14 L 467.22 115.69 L 467.05 118.73 L 466.99 123.63 L 467.11 126.64 L 467.34 129.94 L 467.57 133.45 L 467.86 137.07 L 468.21 140.76 L 468.55 144.39 L 468.96 147.71 L 469.31 150.76 L 469.65 153.53 L 470 156.06 L 470.58 160.63 L 471.16 164.58 L 471.68 168.07 L 472.02 171.02 L 472.37 174.44 L 472.48 177.14 L 472.14 179.76 L 471.68 182.25 L 469.02 181.31 L 471.44 180.06 L 474.16 179.99 L 478.15 180.02 L 481.85 180.08 L 486.36 180.19 L 491.04 180.28 L 495.67 180.35 L 500.58 180.43 L 505.56 180.5 L 510.7 180.62 L 513.42 180.75 L 516.14 180.9 L 518.91 181.04 L 521.57 181.19 L 524.23 181.33 L 526.77 181.46 L 529.32 181.58 L 533.83 181.63 L 537.59 181.53 L 540.71 181.25 L 543.66 180.95 L 546.6 180.65 L 549.9 180.43 L 553.25 180.37 L 556.78 180.35 L 560.02 180.34 L 562.79 180.3 L 566.38 180.25 L 569.27 180.2 L 572.22 180.13 L 575.57 180.13 L 576.55 180.29 L 577.42 180.75 L 578.11 181.47 L 578.52 182.36 L 578.63 183.34 L 578.4 184.3 L 577.94 185.14 L 577.19 185.78 L 576.26 186.14 L 575.28 186.19 L 574.3 185.93 L 573.49 185.38 L 572.91 184.6 L 572.62 183.66 L 572.62 182.68 L 572.91 181.75 L 573.49 180.96 L 574.3 180.41 L 575.28 180.15 L 576.26 180.2 L 577.19 180.57 L 577.94 181.2 L 578.4 182.05 L 578.63 183.01 L 578.52 183.99 L 578.11 184.88 L 577.42 185.59 L 576.55 186.05 L 575.57 186.21 L 575.57 186.21 L 572.22 186.21 L 569.27 186.15 L 566.38 186.1 L 562.79 186.04 L 560.02 186.01 L 556.78 185.99 L 553.31 185.98 L 550.07 185.99 L 547.07 186.12 L 544.12 186.33 L 541.11 186.51 L 537.76 186.67 L 533.77 186.68 L 529.03 186.57 L 526.54 186.45 L 524 186.33 L 521.34 186.22 L 518.68 186.11 L 515.9 186.03 L 513.25 185.94 L 510.59 185.87 L 505.56 185.85 L 500.58 185.91 L 495.67 185.98 L 491.04 186.05 L 486.36 186.15 L 481.85 186.26 L 478.15 186.33 L 474.16 186.35 L 471.1 186.66 L 468.32 187.02 L 465.66 182.56 L 466.01 179.78 L 466.88 177.14 L 466.99 174.58 L 466.88 171.53 L 466.65 168.62 L 466.36 165.21 L 465.89 161.16 L 465.49 156.54 L 465.26 154.02 L 464.97 151.3 L 464.56 148.23 L 464.16 144.9 L 463.64 141.35 L 463.06 137.64 L 462.48 133.96 L 462.02 130.47 L 461.56 127.12 L 461.15 123.92 L 460.86 118.57 L 462.42 114.83 L 459.19 114.24 L 456.01 113.77 L 452.6 113.31 L 449.71 111.04 L 449.65 113.61 L 449.59 116.27 L 449.99 119.18 L 450.28 121.82 L 450.23 125.39 L 450.05 128.58 L 449.65 132.47 L 449.01 137.01 L 448.61 139.49 L 448.26 142.15 L 447.86 145.06 L 447.51 148.11 L 447.22 151.37 L 446.99 154.64 L 446.93 157.89 L 446.81 160.95 L 446.81 163.88 L 446.81 168.82 L 446.93 172.66 L 446.99 175.5 L 446.99 179.08 L 446.93 181.92 L 444.39 184.56 L 441.26 184.15 L 438.89 183.21 L 436.23 182.49 L 433.75 181.92 L 430.22 181.1 L 427.56 180.59 L 424.56 180.41 L 421.38 180.39 L 418.83 180.41 L 415.88 180.78 L 413.4 181.13 L 410.33 181.3 L 407.44 181.27 L 404.32 181.25 L 400.97 181.23 L 397.44 181.18 L 394.66 181.08 L 392.12 180.82 L 389.29 180.57 L 386.22 180.34 L 383.27 180.18 L 380.15 180.19 L 377.09 180.2 L 374.31 180.19 L 371.83 180.18 L 368.53 180.21 L 365.06 180.61 L 362.35 181.1 L 359.51 181.72 L 356.51 182.29 L 353.27 182.69 L 349.97 182.81 L 346.45 182.6 L 342.46 182.37 L 338.24 182.16 L 334.25 182.02 L 330.6 182.02 L 326.9 181.94 L 323.72 181.18 L 322.11 178.86 L 322.11 175.52 L 322.22 172.43 L 322.34 169.6 L 322.45 166.16 L 322.39 161.64 L 322.34 158.91 L 322.22 155.91 L 322.16 152.58 L 322.05 148.98 L 321.87 145.07 L 321.7 140.97 L 321.53 136.71 L 321.35 132.54 L 321.18 128.45 L 321.07 124.62 L 320.89 121.15 L 320.83 118.05 L 320.89 113 L 321.3 109.45 L 322.34 106.15 L 322.86 108.69 L 319.62 109.19 L 315.69 109.72 L 311.76 110.23 L 308.4 110.66 L 305.4 109.58 L 305.28 112.26 L 305.11 115.43 L 304.82 118.93 L 304.47 123.53 L 304.24 126.23 L 304.01 129.07 L 303.78 132.06 L 303.55 135.04 L 303.37 137.99 L 303.26 140.98 L 303.14 143.98 L 303.03 146.97 L 303.03 149.95 L 303.03 153.05 L 303.08 156.26 L 303.14 159.59 L 303.26 163.04 L 303.37 166.6 L 303.55 170.05 L 303.66 173.27 L 303.78 176.14 L 303.78 178.7 L 303.37 182.71 L 300.42 185.92 L 296.15 185.7 L 293.37 185.43 L 290.13 185.42 L 287.24 185.39 L 284.47 185.36 L 281.29 185.33 L 278.51 185.3 L 275.1 185.29 L 272.33 185.31 L 269.44 185.36 L 266.72 185.56 L 262.96 185.95 L 259.61 186.29 L 256.02 186.38 L 252.32 186.4 L 249.03 186.4 L 245.96 186.38 L 243.19 186.33 L 240.12 186.29 L 236.6 186.28 L 233.71 186.3 L 230.81 186.32 L 228.33 186.32 L 225.38 186.3 L 222.14 186.26 L 219.31 186.23 L 215.78 186.2 L 213.01 186.2 L 209.77 186.22 L 206.24 186.26 L 202.72 186.33 L 199.77 186.42 L 196.01 186.81 L 193.12 187.18 L 189.88 187.68 L 186.35 188.12 L 183.41 188.63 L 180.46 189 L 176.81 189.32 L 174.04 188.98 L 171.84 187.67 L 170.57 185.3 L 170.45 182.47 L 170.51 179.57 L 170.57 176.93 L 170.57 173.89 L 170.57 170.57 L 170.63 166.94 L 170.63 164.19 L 170.57 161.21 L 170.57 158.28 L 170.51 155.71 L 170.22 153.09 L 169.88 149.39 L 169.41 146.61 L 169.01 143.59 L 168.49 140.65 L 168.03 137.88 L 167.62 135.28 L 167.27 132.73 L 166.81 129.78 L 166.23 126.37 L 165.66 122.98 L 165.31 119.92 L 165.19 116.78 L 165.19 113.74 L 165.19 110.95 L 166.64 113.06 L 169.07 113.81 L 166.52 114.64 L 163.86 114.62 L 161.2 114.58 L 158.6 113.55 L 161.03 112.61 L 160.97 115.4 L 160.91 118.15 L 160.45 121.14 L 159.99 124.16 L 159.87 126.9 L 159.87 129.57 L 159.87 132.86 L 159.87 136.02 L 159.87 138.86 L 159.87 141.82 L 159.87 145.16 L 159.87 148.66 L 159.82 151.66 L 159.82 154.64 L 159.82 157.91 L 159.82 160.68 L 159.87 163.77 L 159.93 167.13 L 159.99 170.39 L 160.05 173.15 L 160.05 176.18 L 160.05 179.28 L 160.63 181.77 L 161.03 184.38 L 160.86 187.11 L 158.83 189.85 L 155.71 190.44 L 153.05 190.39 L 150.39 190.37 L 147.5 190.33 L 144.44 190.24 L 141.26 189.91 L 137.67 189.54 L 135.07 189.32 L 131.72 189.24 L 128.42 189.21 L 125.18 189.17 L 121.77 189.14 L 118.02 189.1 L 114.49 189.05 L 110.85 188.99 L 108.24 188.95 L 105.3 188.91 L 102.12 188.89 L 98.3 189.05 L 93.56 189.37 L 91.02 189.58 L 88.3 189.88 L 85.52 190.21 L 82.75 190.52 L 80.09 190.8 L 75.75 191.06 L 72.57 190.98 L 69.91 190.58 L 67.25 190.29 L 63.73 190.29 L 61.07 190.29 L 58.35 190.29 L 54.65 190.29 L 51.59 190.28 L 48.58 190.25 L 45.51 190.22 L 42.68 190.18 L 40.14 190.13 L 37.02 190.04 L 33.95 189.86 L 30.71 189.42 L 28 189.13 L 24.99 188.86 L 21.81 188.72 L 18.28 188.65 L 14.41 188.57 L 10.19 188.49 L 5.68 188.39 L 2.67 188.38 L 2.15 188.32 L 1.63 188.13 L 1.23 187.83 L 0.82 187.43 L 0.59 186.95 L 0.48 186.44 L 0.48 185.9 L 0.59 185.39 L 0.82 184.91 L 1.23 184.52 L 1.63 184.21 L 2.15 184.02 L 2.67 183.96 L 2.67 183.96" fill="rgb(0, 0, 0)" stroke="rgb(0, 0, 0)" stroke-miterlimit="10" pointer-events="all"/><path d="M 122.42 43.81 L 123.96 45.73 L 126.61 48.36 L 129.61 50.94 L 132.85 53.48 L 136.37 56.29 L 140.08 59.45 L 143.86 62.8 L 145.74 64.69 L 147.48 66.5 L 150.63 70.01 L 153.12 73.02 L 155.01 75.76 L 156.37 77.97 L 157.97 80.98 L 158.96 83.65 L 159.74 86.32 L 160.33 88.9 L 160.99 92.03 L 161.54 94.6 L 161.76 97.48 L 161.82 99.74 L 161.72 100.49 L 161.46 101.2 L 161.03 101.82 L 160.46 102.33 L 159.78 102.68 L 159.05 102.86 L 158.29 102.86 L 157.56 102.68 L 156.88 102.33 L 156.32 101.82 L 155.89 101.2 L 155.62 100.49 L 155.53 99.74 L 157.11 102.46 L 155.19 100.31 L 153.27 98.01 L 150.68 96.14 L 148.36 94.85 L 145.7 93.44 L 143.35 92.25 L 144.66 89.96 L 147.23 90.62 L 149.45 92.32 L 152.64 93.45 L 155.08 94.11 L 158.28 94.8 L 160.82 94.96 L 161.8 92.12 L 162.96 89.78 L 164.32 87 L 166.07 83.76 L 168 80.29 L 170.07 76.73 L 172.17 73.32 L 174.17 70.19 L 176.06 67.53 L 177.64 65.42 L 182.22 61.32 L 182.93 61.08 L 183.69 61.09 L 184.39 61.34 L 184.98 61.8 L 185.39 62.43 L 185.58 63.15 L 185.54 63.9 L 185.25 64.59 L 184.76 65.15 L 184.11 65.54 L 183.38 65.69 L 182.63 65.6 L 181.95 65.27 L 181.42 64.75 L 181.07 64.08 L 180.97 63.35 L 181.09 62.61 L 181.46 61.95 L 182.01 61.44 L 182.69 61.14 L 183.44 61.06 L 184.16 61.23 L 184.8 61.63 L 185.28 62.2 L 185.54 62.9 L 185.58 63.65 L 185.37 64.37 L 184.94 64.99 L 184.34 65.43 L 184.34 65.43 L 182.38 66.89 L 179.6 70.06 L 177.86 72.47 L 176.04 75.54 L 174.24 78.91 L 172.54 82.52 L 171.01 86.11 L 169.7 89.32 L 168.58 92.29 L 167.64 94.64 L 166.03 98.12 L 163.94 100.42 L 160.76 101.38 L 157.87 101.18 L 154.94 100.56 L 152.16 99.93 L 149.24 99.06 L 146.43 97.98 L 143.95 96.39 L 141.59 93.81 L 139.62 90.8 L 139.62 87.21 L 143.38 85.49 L 146.15 86.68 L 148.56 87.88 L 151.21 89.24 L 154.13 90.82 L 156.64 92.54 L 158.74 94.49 L 160.09 96.93 L 161.82 99.74 L 161.72 100.49 L 161.46 101.2 L 161.03 101.82 L 160.46 102.33 L 159.79 102.68 L 159.05 102.86 L 158.29 102.86 L 157.56 102.68 L 156.88 102.33 L 156.32 101.82 L 155.89 101.2 L 155.62 100.49 L 155.53 99.74 L 155.55 98.91 L 155.61 96.34 L 155.26 93.82 L 154.88 91.26 L 154.15 87.69 L 153.21 84.3 L 152.14 81.57 L 150.49 78.55 L 149.08 76.27 L 146.8 73.34 L 143.85 69.98 L 140.47 66.54 L 136.78 63.29 L 133.15 60.17 L 129.75 57.37 L 126.41 54.61 L 123.22 51.64 L 120.41 48.5 L 118.93 46.53 L 118.65 46.07 L 118.5 45.56 L 118.47 45.03 L 118.57 44.51 L 118.78 44.02 L 119.12 43.6 L 119.53 43.28 L 120.02 43.06 L 120.55 42.96 L 121.08 43 L 121.59 43.16 L 122.04 43.44 L 122.42 43.81 L 122.42 43.81" fill="rgb(0, 0, 0)" stroke="rgb(0, 0, 0)" stroke-miterlimit="10" pointer-events="all"/><path d="M 84.06 21.36 L 82.06 21.78 L 79.62 23.2 L 78.19 25.7 L 77.4 28.14 L 76.9 30.69 L 76.85 33.79 L 79.24 34.97 L 82.06 33.87 L 83.94 32.04 L 84.49 29.44 L 84.44 26.44 L 83.68 23.58 L 81.72 20.26 L 80.85 19.69 L 80.21 18.86 L 79.87 17.88 L 79.86 16.85 L 80.18 15.86 L 80.8 15.03 L 81.65 14.43 L 82.65 14.15 L 83.69 14.19 L 84.66 14.57 L 85.46 15.23 L 86 16.11 L 86.23 17.13 L 86.13 18.16 L 85.71 19.11 L 85 19.87 L 84.09 20.36 L 83.07 20.54 L 82.04 20.39 L 81.12 19.91 L 80.4 19.16 L 79.95 18.22 L 79.83 17.19 L 80.04 16.18 L 80.57 15.28 L 81.35 14.6 L 82.31 14.21 L 83.35 14.14 L 84.35 14.41 L 84.35 14.41 L 88.73 19.27 L 90.06 22.47 L 90.76 25.94 L 90.8 28.92 L 90.42 32.19 L 89.53 34.68 L 87.97 36.86 L 85.87 38.68 L 83.53 39.91 L 80.4 40.86 L 76.74 40.87 L 73.91 39.43 L 72.27 37.51 L 71.42 35.1 L 71.33 32.54 L 71.62 29.6 L 72.37 26.55 L 73.64 23.29 L 75.49 20.43 L 78.06 18.38 L 81.26 17.29 L 83.28 16.98 L 83.82 16.95 L 84.34 17.05 L 84.83 17.27 L 85.25 17.61 L 85.58 18.03 L 85.8 18.52 L 85.89 19.05 L 85.86 19.58 L 85.7 20.09 L 85.42 20.55 L 85.04 20.93 L 84.58 21.2 L 84.06 21.36 L 84.06 21.36" fill="rgb(0, 0, 0)" stroke="rgb(0, 0, 0)" stroke-miterlimit="10" pointer-events="all"/><path d="M 94.94 15.77 L 96.12 14.21 L 99.38 11.73 L 103.08 10 L 106.87 8.8 L 109.83 7.99 L 113.11 7.56 L 115.89 8.68 L 117.54 10.94 L 118.43 13.89 L 119.11 17.65 L 119.4 20.39 L 119.62 22.92 L 119.39 26.64 L 117.66 29.77 L 114.29 31.52 L 111.2 32.06 L 108.69 32.27 L 105.7 32.22 L 102.51 31.89 L 99.32 31.3 L 96.4 30.38 L 93.86 28.68 L 92.19 26.02 L 91.61 23.2 L 91.6 19.59 L 92.2 16.27 L 96.36 10.94 L 97.24 10.4 L 98.25 10.18 L 99.28 10.29 L 100.23 10.72 L 100.98 11.43 L 101.47 12.35 L 101.63 13.37 L 101.47 14.39 L 100.98 15.31 L 100.23 16.02 L 99.29 16.46 L 98.26 16.58 L 97.25 16.35 L 96.36 15.82 L 95.69 15.03 L 95.3 14.07 L 95.25 13.04 L 95.52 12.04 L 96.1 11.18 L 96.93 10.55 L 97.91 10.22 L 98.94 10.21 L 99.93 10.55 L 100.75 11.17 L 101.34 12.03 L 101.61 13.03 L 101.56 14.06 L 101.18 15.02 L 100.51 15.81 L 100.51 15.81 L 98 19.1 L 97.85 21.71 L 98.63 24.61 L 101.86 25.52 L 104.59 25.88 L 107.2 26.02 L 110.39 25.85 L 113.59 25 L 113.62 22.2 L 113.38 19.62 L 113.03 16.32 L 112.61 12.91 L 109.77 13.35 L 106.59 14.12 L 103.29 15.21 L 99.67 17.11 L 98.41 18.58 L 98.02 18.95 L 97.56 19.22 L 97.04 19.37 L 96.5 19.4 L 95.97 19.29 L 95.49 19.06 L 95.07 18.72 L 94.74 18.29 L 94.53 17.8 L 94.44 17.27 L 94.48 16.73 L 94.65 16.22 L 94.94 15.77 L 94.94 15.77" fill="rgb(0, 0, 0)" stroke="rgb(0, 0, 0)" stroke-miterlimit="10" pointer-events="all"/><path d="M 127.62 3.22 L 129.46 2.16 L 132.54 0.92 L 135.55 0.24 L 138.23 -0.16 L 140.87 -0.26 L 144.42 0.54 L 146.54 2.19 L 148.18 5.61 L 148.45 8.35 L 148.21 11.23 L 147.42 14.39 L 146.05 17.55 L 144.14 20.31 L 141.45 22.66 L 138.65 24.05 L 135.62 24.55 L 132.27 23.62 L 129.72 21.37 L 127.89 18.7 L 126.4 15.75 L 125.26 13.17 L 124.46 10.46 L 124.41 7.8 L 128.21 2.42 L 129.19 2.17 L 130.19 2.25 L 131.11 2.65 L 131.86 3.33 L 132.36 4.2 L 132.54 5.19 L 132.41 6.19 L 131.96 7.09 L 131.25 7.8 L 130.35 8.25 L 129.35 8.38 L 128.36 8.19 L 127.49 7.7 L 126.82 6.95 L 126.42 6.02 L 126.34 5.02 L 126.58 4.04 L 127.12 3.2 L 127.91 2.57 L 128.85 2.22 L 129.86 2.19 L 130.82 2.49 L 131.64 3.08 L 132.22 3.89 L 132.52 4.85 L 132.49 5.86 L 132.14 6.8 L 131.51 7.59 L 130.66 8.13 L 130.66 8.13 L 130.86 10.69 L 131.91 13.08 L 133.75 16.46 L 136.48 18.44 L 138.73 17.31 L 140.77 14.87 L 142.14 11.56 L 142.65 8.33 L 142 5.4 L 138.8 4.95 L 135.12 5.28 L 131.62 6.17 L 129.72 7.13 L 129.23 7.32 L 128.7 7.39 L 128.16 7.33 L 127.66 7.15 L 127.22 6.85 L 126.86 6.45 L 126.61 5.98 L 126.47 5.46 L 126.47 4.93 L 126.59 4.41 L 126.83 3.93 L 127.18 3.53 L 127.62 3.22 L 127.62 3.22" fill="rgb(0, 0, 0)" stroke="rgb(0, 0, 0)" stroke-miterlimit="10" pointer-events="all"/></g></svg>